# xmcd
# 
# Track frame offsets:
#     150
#     30864
#     56918
#     77037
#     105301
#     127834
#     157306
#     173858
#     190334
#     214556
#     237049
#     258153
#     286776
#     312466
# 
# Disc length: 4400
# 
# Revision: 2
# Processed by: cddbd v1.5.2PL0 Copyright (c) Steve Scherf et al.
# Submitted via: fre:ac v1.0.17
# 
DISCID=b4112e0e
DTITLE=Various Artist - All My Friends: Celebrating the Songs and Voice of Greg Allman [CD1]
DYEAR=2014
DGENRE=Southern Rock
TTITLE0=Warren Haynes - Come and Go Blues
TTITLE1=Warren Haynes and Derek Trucks - End Of The Line
TTITLE2=Susan Tedeschi and Derek Trucks - Stand Back
TTITLE3=Devon Allman, Jimmy Hall and Robert Randolph - You Can't Lose What You Ain't Never Had
TTITLE4=Sam Moore - Please Call Home
TTITLE5=Keb' Mo - Just Another Rider
TTITLE6=Brantley Gilbert - Before the Bullets Fly 
TTITLE7=Dr. John - Let This Be A Lesson To Ya 
TTITLE8=Pat Monahan - Queen of Hearts
TTITLE9=John Hiatt - One Way Out
TTITLE10=Taj Mahal and Gregg Allman - Statesboro Blues
TTITLE11=Widespread Panic - Just Ain't Easy
TTITLE12=Widespread Panic and Derek Trucks - Wasted Words
TTITLE13=Trace Adkins - I'm No Angel
EXTD=
EXTT0=
EXTT1=
EXTT2=
EXTT3=
EXTT4=
EXTT5=
EXTT6=
EXTT7=
EXTT8=
EXTT9=
EXTT10=
EXTT11=
EXTT12=
EXTT13=
PLAYORDER=
